<?xml version="1.0" standalone="no"?>
<!DOCTYPE svg PUBLIC "-//W3C//DTD SVG 20010904//EN"
 "http://www.w3.org/TR/2001/REC-SVG-20010904/DTD/svg10.dtd">
<svg version="1.0" xmlns="http://www.w3.org/2000/svg"
 width="64.000000pt" height="64.000000pt" viewBox="0 0 64.000000 64.000000"
 preserveAspectRatio="xMidYMid meet">

<g transform="translate(0.000000,64.000000) scale(0.100000,-0.100000)"
fill="#1bc296" stroke="none">
<path d="M145 616 c-60 -28 -97 -66 -124 -126 -67 -149 54 -330 221 -330 43 0
123 26 139 46 10 13 30 -3 125 -97 62 -61 118 -108 123 -104 17 10 0 32 -108
139 l-100 99 18 26 c83 119 33 284 -103 347 -66 31 -127 31 -191 0z m173 -22
c174 -72 174 -316 0 -388 -133 -56 -287 47 -288 192 -1 147 154 253 288 196z"/>
</g>
</svg>
