<?xml version="1.0" standalone="no"?>
<!DOCTYPE svg PUBLIC "-//W3C//DTD SVG 20010904//EN"
 "http://www.w3.org/TR/2001/REC-SVG-20010904/DTD/svg10.dtd">
<svg version="1.0" xmlns="http://www.w3.org/2000/svg"
 width="24.000000pt" height="24.000000pt" viewBox="0 0 24.000000 24.000000"
 preserveAspectRatio="xMidYMid meet">

<g transform="translate(0.000000,24.000000) scale(0.100000,-0.100000)"
fill="#DD0000" stroke="none">
<path d="M63 220 c-34 -21 -63 -66 -63 -100 0 -56 65 -120 123 -120 59 0 117
58 117 117 0 59 -64 123 -122 123 -13 0 -37 -9 -55 -20z m80 -62 c31 29 44 16
15 -15 l-21 -23 23 -25 c27 -28 8 -36 -22 -8 -17 15 -19 15 -38 -2 -26 -24
-39 -11 -15 15 17 19 17 21 2 38 -28 30 -20 49 8 22 l25 -23 23 21z"/>
</g>
</svg>
