<?xml version="1.0" standalone="no"?>
<!DOCTYPE svg PUBLIC "-//W3C//DTD SVG 20010904//EN"
 "http://www.w3.org/TR/2001/REC-SVG-20010904/DTD/svg10.dtd">
<svg version="1.0" xmlns="http://www.w3.org/2000/svg"
 width="512.000000pt" height="512.000000pt" viewBox="0 0 512.000000 512.000000"
 preserveAspectRatio="xMidYMid meet">

<g transform="translate(0.000000,512.000000) scale(0.100000,-0.100000)"
fill="#000000" stroke="none">
<path fill='#07c972' d="M1850 5065 c-147 -19 -253 -43 -399 -91 -312 -102 -592 -276 -831
-514 -695 -695 -819 -1756 -302 -2595 167 -272 435 -536 715 -704 705 -423
1599 -391 2277 82 47 33 110 82 141 108 31 27 61 49 65 49 5 0 306 -297 669
-661 365 -365 677 -669 697 -680 123 -64 259 39 233 178 -6 34 -85 117 -688
720 l-681 682 34 48 c210 292 318 523 389 833 33 147 45 269 45 470 0 221 -20
366 -79 570 -210 728 -830 1310 -1567 1471 -219 48 -508 62 -718 34z m524
-220 c418 -64 773 -242 1067 -535 294 -293 475 -649 541 -1065 17 -108 17
-437 -1 -545 -64 -402 -239 -753 -520 -1043 -290 -299 -663 -491 -1086 -559
-115 -18 -426 -15 -550 6 -417 70 -762 245 -1049 532 -302 303 -485 674 -542
1104 -19 146 -14 399 10 543 126 734 670 1329 1388 1518 221 58 528 76 742 44z"/>
</g>
</svg>
